<mxfile host="app.diagrams.net" modified="2023-07-30T18:44:04.242Z" agent="Mozilla/5.0 (Windows NT 10.0; Win64; x64) AppleWebKit/537.36 (KHTML, like Gecko) Chrome/115.0.0.0 Safari/537.36 Edg/115.0.1901.188" etag="cNpAaLn4l8hB6akQSS8d" version="21.6.6" type="device">
  <diagram id="Gi5_93j05Tq5kSE1P_lF" name="Page-2">
    <mxGraphModel dx="1266" dy="746" grid="1" gridSize="10" guides="1" tooltips="1" connect="1" arrows="1" fold="1" page="1" pageScale="1" pageWidth="850" pageHeight="1100" math="0" shadow="0">
      <root>
        <mxCell id="0" />
        <mxCell id="1" parent="0" />
        <mxCell id="18j1XGoCvIrTiXG_NGVG-80" value="Entrenador" style="swimlane;whiteSpace=wrap;html=1;" parent="1" vertex="1">
          <mxGeometry x="1090" y="110" width="190" height="920" as="geometry" />
        </mxCell>
        <mxCell id="PrbOIOsX8bL1bBByhy2H-1" value="" style="edgeStyle=orthogonalEdgeStyle;rounded=0;orthogonalLoop=1;jettySize=auto;html=1;" parent="18j1XGoCvIrTiXG_NGVG-80" source="coWp2lrXI3cDdnSgMNUa-24" target="18j1XGoCvIrTiXG_NGVG-69" edge="1">
          <mxGeometry relative="1" as="geometry" />
        </mxCell>
        <mxCell id="coWp2lrXI3cDdnSgMNUa-24" value="Mesociclos disponibles" style="rhombus;whiteSpace=wrap;html=1;" parent="18j1XGoCvIrTiXG_NGVG-80" vertex="1">
          <mxGeometry x="55" y="475" width="80" height="80" as="geometry" />
        </mxCell>
        <mxCell id="18j1XGoCvIrTiXG_NGVG-63" value="Navegar a &quot;Esgrimistas&quot;" style="rounded=1;whiteSpace=wrap;html=1;" parent="18j1XGoCvIrTiXG_NGVG-80" vertex="1">
          <mxGeometry x="35" y="90" width="120" height="60" as="geometry" />
        </mxCell>
        <mxCell id="18j1XGoCvIrTiXG_NGVG-65" value="Seleccionar un esgrimista" style="rounded=1;whiteSpace=wrap;html=1;" parent="18j1XGoCvIrTiXG_NGVG-80" vertex="1">
          <mxGeometry x="35" y="195" width="120" height="60" as="geometry" />
        </mxCell>
        <mxCell id="18j1XGoCvIrTiXG_NGVG-67" value="Navegar a&lt;br style=&quot;border-color: var(--border-color); font-family: Verdana; font-size: 11px;&quot;&gt;&lt;span style=&quot;font-family: Verdana; font-size: 11px;&quot;&gt;&quot;Objetivos&quot;&lt;/span&gt;" style="rounded=1;whiteSpace=wrap;html=1;" parent="18j1XGoCvIrTiXG_NGVG-80" vertex="1">
          <mxGeometry x="35" y="300" width="120" height="60" as="geometry" />
        </mxCell>
        <mxCell id="18j1XGoCvIrTiXG_NGVG-85" value="" style="ellipse;whiteSpace=wrap;html=1;aspect=fixed;fillColor=#000000;" parent="18j1XGoCvIrTiXG_NGVG-80" vertex="1">
          <mxGeometry x="85" y="35" width="20" height="20" as="geometry" />
        </mxCell>
        <mxCell id="coWp2lrXI3cDdnSgMNUa-1" value="" style="edgeStyle=orthogonalEdgeStyle;rounded=0;orthogonalLoop=1;jettySize=auto;html=1;" parent="18j1XGoCvIrTiXG_NGVG-80" source="18j1XGoCvIrTiXG_NGVG-85" target="18j1XGoCvIrTiXG_NGVG-63" edge="1">
          <mxGeometry relative="1" as="geometry" />
        </mxCell>
        <mxCell id="8qTdaW2C3bK8AxteWutW-29" value="Click en &quot;Crear Nuevo&quot;" style="rounded=1;whiteSpace=wrap;html=1;" parent="18j1XGoCvIrTiXG_NGVG-80" vertex="1">
          <mxGeometry x="35" y="390" width="120" height="60" as="geometry" />
        </mxCell>
        <mxCell id="8qTdaW2C3bK8AxteWutW-43" value="No" style="text;html=1;align=center;verticalAlign=middle;resizable=0;points=[];autosize=1;strokeColor=none;fillColor=none;" parent="18j1XGoCvIrTiXG_NGVG-80" vertex="1">
          <mxGeometry x="145" y="490" width="40" height="30" as="geometry" />
        </mxCell>
        <mxCell id="r8oEgROdF_Da1b-ZHzZl-4" value="" style="edgeStyle=orthogonalEdgeStyle;rounded=0;orthogonalLoop=1;jettySize=auto;html=1;" parent="18j1XGoCvIrTiXG_NGVG-80" source="18j1XGoCvIrTiXG_NGVG-69" target="coWp2lrXI3cDdnSgMNUa-3" edge="1">
          <mxGeometry relative="1" as="geometry" />
        </mxCell>
        <mxCell id="18j1XGoCvIrTiXG_NGVG-69" value="Completar formulario&lt;br style=&quot;border-color: var(--border-color); font-family: Verdana; font-size: 11px;&quot;&gt;&lt;span style=&quot;font-family: Verdana; font-size: 11px;&quot;&gt;de creación&lt;/span&gt;" style="rounded=1;whiteSpace=wrap;html=1;" parent="18j1XGoCvIrTiXG_NGVG-80" vertex="1">
          <mxGeometry x="35" y="590" width="120" height="60" as="geometry" />
        </mxCell>
        <mxCell id="8qTdaW2C3bK8AxteWutW-36" value="" style="group" parent="18j1XGoCvIrTiXG_NGVG-80" vertex="1" connectable="0">
          <mxGeometry x="75" y="860" width="40" height="40" as="geometry" />
        </mxCell>
        <mxCell id="8qTdaW2C3bK8AxteWutW-34" value="" style="ellipse;whiteSpace=wrap;html=1;aspect=fixed;" parent="8qTdaW2C3bK8AxteWutW-36" vertex="1">
          <mxGeometry width="40" height="40" as="geometry" />
        </mxCell>
        <mxCell id="8qTdaW2C3bK8AxteWutW-35" value="" style="ellipse;whiteSpace=wrap;html=1;aspect=fixed;fillColor=#000000;" parent="8qTdaW2C3bK8AxteWutW-36" vertex="1">
          <mxGeometry x="10" y="10" width="20" height="20" as="geometry" />
        </mxCell>
        <mxCell id="coWp2lrXI3cDdnSgMNUa-3" value="Click en &quot;Confirmar&quot;" style="rounded=1;whiteSpace=wrap;html=1;" parent="18j1XGoCvIrTiXG_NGVG-80" vertex="1">
          <mxGeometry x="35" y="690" width="120" height="60" as="geometry" />
        </mxCell>
        <mxCell id="r8oEgROdF_Da1b-ZHzZl-5" style="edgeStyle=orthogonalEdgeStyle;rounded=0;orthogonalLoop=1;jettySize=auto;html=1;entryX=0.5;entryY=0;entryDx=0;entryDy=0;" parent="18j1XGoCvIrTiXG_NGVG-80" source="8qTdaW2C3bK8AxteWutW-32" target="8qTdaW2C3bK8AxteWutW-34" edge="1">
          <mxGeometry relative="1" as="geometry" />
        </mxCell>
        <mxCell id="8qTdaW2C3bK8AxteWutW-32" value="Mostrar mensaje de confirmación" style="rounded=1;whiteSpace=wrap;html=1;" parent="18j1XGoCvIrTiXG_NGVG-80" vertex="1">
          <mxGeometry x="35" y="780" width="120" height="60" as="geometry" />
        </mxCell>
        <mxCell id="8qTdaW2C3bK8AxteWutW-23" value="Web App" style="swimlane;whiteSpace=wrap;html=1;" parent="1" vertex="1">
          <mxGeometry x="1280" y="110" width="180" height="920" as="geometry" />
        </mxCell>
        <mxCell id="8qTdaW2C3bK8AxteWutW-25" value="Mostrar Listado de esgrimistas" style="rounded=1;whiteSpace=wrap;html=1;" parent="8qTdaW2C3bK8AxteWutW-23" vertex="1">
          <mxGeometry x="30" y="90" width="120" height="60" as="geometry" />
        </mxCell>
        <mxCell id="8qTdaW2C3bK8AxteWutW-26" value="Mostrar detalle de esgrimista" style="rounded=1;whiteSpace=wrap;html=1;" parent="8qTdaW2C3bK8AxteWutW-23" vertex="1">
          <mxGeometry x="30" y="195" width="120" height="60" as="geometry" />
        </mxCell>
        <mxCell id="8qTdaW2C3bK8AxteWutW-28" value="Mostrar listado de objetivos" style="rounded=1;whiteSpace=wrap;html=1;" parent="8qTdaW2C3bK8AxteWutW-23" vertex="1">
          <mxGeometry x="30" y="300" width="120" height="60" as="geometry" />
        </mxCell>
        <mxCell id="8qTdaW2C3bK8AxteWutW-30" value="Mostrar formulario de creación de objetivo" style="rounded=1;whiteSpace=wrap;html=1;" parent="8qTdaW2C3bK8AxteWutW-23" vertex="1">
          <mxGeometry x="30" y="390" width="120" height="60" as="geometry" />
        </mxCell>
        <mxCell id="coWp2lrXI3cDdnSgMNUa-28" value="Mostrar mensaje de&lt;br&gt;alerta &quot;No existen mesociclos disponibles&quot;" style="rounded=1;whiteSpace=wrap;html=1;" parent="8qTdaW2C3bK8AxteWutW-23" vertex="1">
          <mxGeometry x="30" y="472.5" width="120" height="85" as="geometry" />
        </mxCell>
        <mxCell id="r8oEgROdF_Da1b-ZHzZl-1" value="Guardar Objetivo" style="rounded=1;whiteSpace=wrap;html=1;" parent="8qTdaW2C3bK8AxteWutW-23" vertex="1">
          <mxGeometry x="30" y="690" width="120" height="60" as="geometry" />
        </mxCell>
        <mxCell id="8qTdaW2C3bK8AxteWutW-44" value="Si" style="text;html=1;align=center;verticalAlign=middle;resizable=0;points=[];autosize=1;strokeColor=none;fillColor=none;" parent="1" vertex="1">
          <mxGeometry x="1185" y="658" width="30" height="30" as="geometry" />
        </mxCell>
        <mxCell id="8qTdaW2C3bK8AxteWutW-45" value="" style="edgeStyle=orthogonalEdgeStyle;rounded=0;orthogonalLoop=1;jettySize=auto;html=1;" parent="1" source="18j1XGoCvIrTiXG_NGVG-63" target="8qTdaW2C3bK8AxteWutW-25" edge="1">
          <mxGeometry relative="1" as="geometry" />
        </mxCell>
        <mxCell id="8qTdaW2C3bK8AxteWutW-47" style="edgeStyle=orthogonalEdgeStyle;rounded=0;orthogonalLoop=1;jettySize=auto;html=1;" parent="1" source="8qTdaW2C3bK8AxteWutW-25" target="18j1XGoCvIrTiXG_NGVG-65" edge="1">
          <mxGeometry relative="1" as="geometry">
            <Array as="points">
              <mxPoint x="1370" y="280" />
              <mxPoint x="1185" y="280" />
            </Array>
          </mxGeometry>
        </mxCell>
        <mxCell id="8qTdaW2C3bK8AxteWutW-48" value="" style="edgeStyle=orthogonalEdgeStyle;rounded=0;orthogonalLoop=1;jettySize=auto;html=1;" parent="1" source="18j1XGoCvIrTiXG_NGVG-65" target="8qTdaW2C3bK8AxteWutW-26" edge="1">
          <mxGeometry relative="1" as="geometry" />
        </mxCell>
        <mxCell id="8qTdaW2C3bK8AxteWutW-49" style="edgeStyle=orthogonalEdgeStyle;rounded=0;orthogonalLoop=1;jettySize=auto;html=1;" parent="1" source="8qTdaW2C3bK8AxteWutW-26" target="18j1XGoCvIrTiXG_NGVG-67" edge="1">
          <mxGeometry relative="1" as="geometry">
            <Array as="points">
              <mxPoint x="1370" y="390" />
              <mxPoint x="1185" y="390" />
            </Array>
          </mxGeometry>
        </mxCell>
        <mxCell id="8qTdaW2C3bK8AxteWutW-50" value="" style="edgeStyle=orthogonalEdgeStyle;rounded=0;orthogonalLoop=1;jettySize=auto;html=1;" parent="1" source="18j1XGoCvIrTiXG_NGVG-67" target="8qTdaW2C3bK8AxteWutW-28" edge="1">
          <mxGeometry relative="1" as="geometry" />
        </mxCell>
        <mxCell id="8qTdaW2C3bK8AxteWutW-52" style="edgeStyle=orthogonalEdgeStyle;rounded=0;orthogonalLoop=1;jettySize=auto;html=1;" parent="1" source="8qTdaW2C3bK8AxteWutW-28" target="8qTdaW2C3bK8AxteWutW-29" edge="1">
          <mxGeometry relative="1" as="geometry">
            <Array as="points">
              <mxPoint x="1370" y="490" />
              <mxPoint x="1185" y="490" />
            </Array>
          </mxGeometry>
        </mxCell>
        <mxCell id="8qTdaW2C3bK8AxteWutW-53" value="" style="edgeStyle=orthogonalEdgeStyle;rounded=0;orthogonalLoop=1;jettySize=auto;html=1;" parent="1" source="8qTdaW2C3bK8AxteWutW-29" target="8qTdaW2C3bK8AxteWutW-30" edge="1">
          <mxGeometry relative="1" as="geometry" />
        </mxCell>
        <mxCell id="8qTdaW2C3bK8AxteWutW-54" style="edgeStyle=orthogonalEdgeStyle;rounded=0;orthogonalLoop=1;jettySize=auto;html=1;" parent="1" source="8qTdaW2C3bK8AxteWutW-30" target="coWp2lrXI3cDdnSgMNUa-24" edge="1">
          <mxGeometry relative="1" as="geometry">
            <Array as="points">
              <mxPoint x="1370" y="570" />
              <mxPoint x="1185" y="570" />
            </Array>
          </mxGeometry>
        </mxCell>
        <mxCell id="sAKi_VJv23XbuzzEUiSO-1" style="edgeStyle=orthogonalEdgeStyle;rounded=0;orthogonalLoop=1;jettySize=auto;html=1;" parent="1" source="coWp2lrXI3cDdnSgMNUa-24" target="coWp2lrXI3cDdnSgMNUa-28" edge="1">
          <mxGeometry relative="1" as="geometry" />
        </mxCell>
        <mxCell id="r8oEgROdF_Da1b-ZHzZl-2" value="" style="edgeStyle=orthogonalEdgeStyle;rounded=0;orthogonalLoop=1;jettySize=auto;html=1;" parent="1" source="coWp2lrXI3cDdnSgMNUa-3" target="r8oEgROdF_Da1b-ZHzZl-1" edge="1">
          <mxGeometry relative="1" as="geometry" />
        </mxCell>
        <mxCell id="r8oEgROdF_Da1b-ZHzZl-3" style="edgeStyle=orthogonalEdgeStyle;rounded=0;orthogonalLoop=1;jettySize=auto;html=1;" parent="1" source="r8oEgROdF_Da1b-ZHzZl-1" target="8qTdaW2C3bK8AxteWutW-32" edge="1">
          <mxGeometry relative="1" as="geometry">
            <Array as="points">
              <mxPoint x="1370" y="870" />
              <mxPoint x="1185" y="870" />
            </Array>
          </mxGeometry>
        </mxCell>
        <mxCell id="CIh1lqn303J5CGHDNLh4-1" value="Backend" style="shape=umlLifeline;perimeter=lifelinePerimeter;whiteSpace=wrap;html=1;container=0;collapsible=0;recursiveResize=0;outlineConnect=0;rounded=1;shadow=0;comic=0;labelBackgroundColor=none;strokeWidth=1;fontFamily=Verdana;fontSize=12;align=center;" parent="1" vertex="1">
          <mxGeometry x="620" y="90" width="100" height="1670" as="geometry" />
        </mxCell>
        <mxCell id="CIh1lqn303J5CGHDNLh4-2" value="Base de datos" style="shape=umlLifeline;perimeter=lifelinePerimeter;whiteSpace=wrap;html=1;container=0;collapsible=0;recursiveResize=0;outlineConnect=0;rounded=1;shadow=0;comic=0;labelBackgroundColor=none;strokeWidth=1;fontFamily=Verdana;fontSize=12;align=center;" parent="1" vertex="1">
          <mxGeometry x="820" y="90" width="100" height="1670" as="geometry" />
        </mxCell>
        <mxCell id="CIh1lqn303J5CGHDNLh4-3" value="Entrenador" style="shape=umlLifeline;perimeter=lifelinePerimeter;whiteSpace=wrap;html=1;container=0;collapsible=0;recursiveResize=0;outlineConnect=0;rounded=1;shadow=0;comic=0;labelBackgroundColor=none;strokeWidth=1;fontFamily=Verdana;fontSize=12;align=center;" parent="1" vertex="1">
          <mxGeometry x="230" y="90" width="120" height="1670" as="geometry" />
        </mxCell>
        <mxCell id="CIh1lqn303J5CGHDNLh4-4" value="Frontend" style="shape=umlLifeline;perimeter=lifelinePerimeter;whiteSpace=wrap;html=1;container=0;collapsible=0;recursiveResize=0;outlineConnect=0;rounded=1;shadow=0;comic=0;labelBackgroundColor=none;strokeWidth=1;fontFamily=Verdana;fontSize=12;align=center;" parent="1" vertex="1">
          <mxGeometry x="435.13" y="90" width="100" height="1670" as="geometry" />
        </mxCell>
        <mxCell id="CIh1lqn303J5CGHDNLh4-5" value="" style="html=1;points=[];perimeter=orthogonalPerimeter;rounded=0;shadow=0;comic=0;labelBackgroundColor=none;strokeWidth=1;fontFamily=Verdana;fontSize=12;align=center;" parent="1" vertex="1">
          <mxGeometry x="285" y="180" width="10" height="1560" as="geometry" />
        </mxCell>
        <mxCell id="CIh1lqn303J5CGHDNLh4-6" style="edgeStyle=orthogonalEdgeStyle;rounded=0;orthogonalLoop=1;jettySize=auto;html=1;" parent="1" source="CIh1lqn303J5CGHDNLh4-10" target="CIh1lqn303J5CGHDNLh4-13" edge="1">
          <mxGeometry relative="1" as="geometry">
            <Array as="points">
              <mxPoint x="770" y="270" />
              <mxPoint x="770" y="270" />
            </Array>
          </mxGeometry>
        </mxCell>
        <mxCell id="CIh1lqn303J5CGHDNLh4-7" value="Consultar esgrimistas" style="edgeLabel;html=1;align=center;verticalAlign=middle;resizable=0;points=[];" parent="CIh1lqn303J5CGHDNLh4-6" vertex="1" connectable="0">
          <mxGeometry x="-0.0632" relative="1" as="geometry">
            <mxPoint x="6" y="-11" as="offset" />
          </mxGeometry>
        </mxCell>
        <mxCell id="CIh1lqn303J5CGHDNLh4-8" style="edgeStyle=orthogonalEdgeStyle;rounded=0;orthogonalLoop=1;jettySize=auto;html=1;dashed=1;" parent="1" source="CIh1lqn303J5CGHDNLh4-10" target="CIh1lqn303J5CGHDNLh4-19" edge="1">
          <mxGeometry relative="1" as="geometry">
            <Array as="points">
              <mxPoint x="580" y="410" />
              <mxPoint x="580" y="410" />
            </Array>
          </mxGeometry>
        </mxCell>
        <mxCell id="CIh1lqn303J5CGHDNLh4-9" value="Enviar respuesta con &lt;br&gt;esgrimistas en formato JSON" style="edgeLabel;html=1;align=center;verticalAlign=middle;resizable=0;points=[];" parent="CIh1lqn303J5CGHDNLh4-8" vertex="1" connectable="0">
          <mxGeometry x="-0.0183" y="1" relative="1" as="geometry">
            <mxPoint y="-21" as="offset" />
          </mxGeometry>
        </mxCell>
        <mxCell id="CIh1lqn303J5CGHDNLh4-10" value="" style="html=1;points=[];perimeter=orthogonalPerimeter;rounded=0;shadow=0;comic=0;labelBackgroundColor=none;strokeWidth=1;fontFamily=Verdana;fontSize=12;align=center;" parent="1" vertex="1">
          <mxGeometry x="665" y="230" width="10" height="187" as="geometry" />
        </mxCell>
        <mxCell id="CIh1lqn303J5CGHDNLh4-11" style="edgeStyle=orthogonalEdgeStyle;rounded=0;orthogonalLoop=1;jettySize=auto;html=1;dashed=1;" parent="1" source="CIh1lqn303J5CGHDNLh4-13" target="CIh1lqn303J5CGHDNLh4-10" edge="1">
          <mxGeometry relative="1" as="geometry">
            <Array as="points">
              <mxPoint x="770" y="350" />
              <mxPoint x="770" y="350" />
            </Array>
          </mxGeometry>
        </mxCell>
        <mxCell id="CIh1lqn303J5CGHDNLh4-12" value="Encontrar esgrimistas" style="edgeLabel;html=1;align=center;verticalAlign=middle;resizable=0;points=[];" parent="CIh1lqn303J5CGHDNLh4-11" vertex="1" connectable="0">
          <mxGeometry x="-0.0211" y="3" relative="1" as="geometry">
            <mxPoint y="-13" as="offset" />
          </mxGeometry>
        </mxCell>
        <mxCell id="CIh1lqn303J5CGHDNLh4-13" value="" style="html=1;points=[];perimeter=orthogonalPerimeter;rounded=0;shadow=0;comic=0;labelBackgroundColor=none;strokeWidth=1;fontFamily=Verdana;fontSize=12;align=center;" parent="1" vertex="1">
          <mxGeometry x="865" y="270" width="10" height="87" as="geometry" />
        </mxCell>
        <mxCell id="CIh1lqn303J5CGHDNLh4-14" value="Ingresar a &quot;Esgrimistas&quot;" style="html=1;verticalAlign=bottom;endArrow=block;entryX=0;entryY=0;labelBackgroundColor=none;fontFamily=Verdana;fontSize=11;edgeStyle=elbowEdgeStyle;elbow=vertical;" parent="1" target="CIh1lqn303J5CGHDNLh4-19" edge="1">
          <mxGeometry x="-0.0061" relative="1" as="geometry">
            <mxPoint x="295" y="187" as="sourcePoint" />
            <mxPoint as="offset" />
          </mxGeometry>
        </mxCell>
        <mxCell id="CIh1lqn303J5CGHDNLh4-15" style="edgeStyle=orthogonalEdgeStyle;rounded=0;orthogonalLoop=1;jettySize=auto;html=1;" parent="1" source="CIh1lqn303J5CGHDNLh4-19" target="CIh1lqn303J5CGHDNLh4-10" edge="1">
          <mxGeometry relative="1" as="geometry">
            <Array as="points">
              <mxPoint x="580" y="230" />
              <mxPoint x="580" y="230" />
            </Array>
          </mxGeometry>
        </mxCell>
        <mxCell id="CIh1lqn303J5CGHDNLh4-16" value="GET request a /fencer" style="edgeLabel;html=1;align=center;verticalAlign=middle;resizable=0;points=[];" parent="CIh1lqn303J5CGHDNLh4-15" vertex="1" connectable="0">
          <mxGeometry x="0.1308" y="1" relative="1" as="geometry">
            <mxPoint x="-9" y="-9" as="offset" />
          </mxGeometry>
        </mxCell>
        <mxCell id="CIh1lqn303J5CGHDNLh4-17" style="edgeStyle=orthogonalEdgeStyle;rounded=0;orthogonalLoop=1;jettySize=auto;html=1;entryX=0.976;entryY=0.173;entryDx=0;entryDy=0;entryPerimeter=0;dashed=1;" parent="1" source="CIh1lqn303J5CGHDNLh4-19" target="CIh1lqn303J5CGHDNLh4-5" edge="1">
          <mxGeometry relative="1" as="geometry">
            <Array as="points">
              <mxPoint x="400" y="450" />
            </Array>
            <mxPoint x="300" y="450" as="targetPoint" />
          </mxGeometry>
        </mxCell>
        <mxCell id="CIh1lqn303J5CGHDNLh4-18" value="Mostrar esgrimistas disponibles" style="edgeLabel;html=1;align=center;verticalAlign=middle;resizable=0;points=[];" parent="CIh1lqn303J5CGHDNLh4-17" vertex="1" connectable="0">
          <mxGeometry x="0.2258" y="3" relative="1" as="geometry">
            <mxPoint x="23" y="-13" as="offset" />
          </mxGeometry>
        </mxCell>
        <mxCell id="CIh1lqn303J5CGHDNLh4-19" value="" style="html=1;points=[];perimeter=orthogonalPerimeter;rounded=0;shadow=0;comic=0;labelBackgroundColor=none;strokeWidth=1;fontFamily=Verdana;fontSize=12;align=center;" parent="1" vertex="1">
          <mxGeometry x="480.13" y="187" width="10" height="270" as="geometry" />
        </mxCell>
        <mxCell id="CIh1lqn303J5CGHDNLh4-21" style="edgeStyle=orthogonalEdgeStyle;rounded=0;orthogonalLoop=1;jettySize=auto;html=1;" parent="1" source="CIh1lqn303J5CGHDNLh4-25" target="CIh1lqn303J5CGHDNLh4-28" edge="1">
          <mxGeometry relative="1" as="geometry">
            <Array as="points">
              <mxPoint x="770" y="580" />
              <mxPoint x="770" y="580" />
            </Array>
          </mxGeometry>
        </mxCell>
        <mxCell id="CIh1lqn303J5CGHDNLh4-22" value="Consultar esgrimista" style="edgeLabel;html=1;align=center;verticalAlign=middle;resizable=0;points=[];" parent="CIh1lqn303J5CGHDNLh4-21" vertex="1" connectable="0">
          <mxGeometry x="-0.0632" relative="1" as="geometry">
            <mxPoint x="6" y="-11" as="offset" />
          </mxGeometry>
        </mxCell>
        <mxCell id="CIh1lqn303J5CGHDNLh4-23" style="edgeStyle=orthogonalEdgeStyle;rounded=0;orthogonalLoop=1;jettySize=auto;html=1;dashed=1;" parent="1" source="CIh1lqn303J5CGHDNLh4-25" target="CIh1lqn303J5CGHDNLh4-34" edge="1">
          <mxGeometry relative="1" as="geometry">
            <Array as="points">
              <mxPoint x="580" y="720" />
              <mxPoint x="580" y="720" />
            </Array>
          </mxGeometry>
        </mxCell>
        <mxCell id="CIh1lqn303J5CGHDNLh4-24" value="Enviar respuesta con &lt;br&gt;esgrimista en formato JSON" style="edgeLabel;html=1;align=center;verticalAlign=middle;resizable=0;points=[];" parent="CIh1lqn303J5CGHDNLh4-23" vertex="1" connectable="0">
          <mxGeometry x="-0.0183" y="1" relative="1" as="geometry">
            <mxPoint y="-21" as="offset" />
          </mxGeometry>
        </mxCell>
        <mxCell id="CIh1lqn303J5CGHDNLh4-25" value="" style="html=1;points=[];perimeter=orthogonalPerimeter;rounded=0;shadow=0;comic=0;labelBackgroundColor=none;strokeWidth=1;fontFamily=Verdana;fontSize=12;align=center;" parent="1" vertex="1">
          <mxGeometry x="665" y="540" width="10" height="187" as="geometry" />
        </mxCell>
        <mxCell id="CIh1lqn303J5CGHDNLh4-26" style="edgeStyle=orthogonalEdgeStyle;rounded=0;orthogonalLoop=1;jettySize=auto;html=1;dashed=1;" parent="1" source="CIh1lqn303J5CGHDNLh4-28" target="CIh1lqn303J5CGHDNLh4-25" edge="1">
          <mxGeometry relative="1" as="geometry">
            <Array as="points">
              <mxPoint x="770" y="660" />
              <mxPoint x="770" y="660" />
            </Array>
          </mxGeometry>
        </mxCell>
        <mxCell id="CIh1lqn303J5CGHDNLh4-27" value="Encontrar esgrimista" style="edgeLabel;html=1;align=center;verticalAlign=middle;resizable=0;points=[];" parent="CIh1lqn303J5CGHDNLh4-26" vertex="1" connectable="0">
          <mxGeometry x="-0.0211" y="3" relative="1" as="geometry">
            <mxPoint y="-13" as="offset" />
          </mxGeometry>
        </mxCell>
        <mxCell id="CIh1lqn303J5CGHDNLh4-28" value="" style="html=1;points=[];perimeter=orthogonalPerimeter;rounded=0;shadow=0;comic=0;labelBackgroundColor=none;strokeWidth=1;fontFamily=Verdana;fontSize=12;align=center;" parent="1" vertex="1">
          <mxGeometry x="865" y="580" width="10" height="87" as="geometry" />
        </mxCell>
        <mxCell id="CIh1lqn303J5CGHDNLh4-29" value="Seleccionar un esgrimista" style="html=1;verticalAlign=bottom;endArrow=block;entryX=0;entryY=0;labelBackgroundColor=none;fontFamily=Verdana;fontSize=11;edgeStyle=elbowEdgeStyle;elbow=vertical;exitX=1.04;exitY=0.203;exitDx=0;exitDy=0;exitPerimeter=0;" parent="1" source="CIh1lqn303J5CGHDNLh4-5" target="CIh1lqn303J5CGHDNLh4-34" edge="1">
          <mxGeometry x="-0.0061" relative="1" as="geometry">
            <mxPoint x="300" y="497" as="sourcePoint" />
            <mxPoint as="offset" />
          </mxGeometry>
        </mxCell>
        <mxCell id="CIh1lqn303J5CGHDNLh4-30" style="edgeStyle=orthogonalEdgeStyle;rounded=0;orthogonalLoop=1;jettySize=auto;html=1;" parent="1" source="CIh1lqn303J5CGHDNLh4-34" target="CIh1lqn303J5CGHDNLh4-25" edge="1">
          <mxGeometry relative="1" as="geometry">
            <Array as="points">
              <mxPoint x="580" y="540" />
              <mxPoint x="580" y="540" />
            </Array>
          </mxGeometry>
        </mxCell>
        <mxCell id="CIh1lqn303J5CGHDNLh4-31" value="GET request a /fencer/:id" style="edgeLabel;html=1;align=center;verticalAlign=middle;resizable=0;points=[];" parent="CIh1lqn303J5CGHDNLh4-30" vertex="1" connectable="0">
          <mxGeometry x="0.1308" y="1" relative="1" as="geometry">
            <mxPoint x="-9" y="-9" as="offset" />
          </mxGeometry>
        </mxCell>
        <mxCell id="CIh1lqn303J5CGHDNLh4-32" style="edgeStyle=orthogonalEdgeStyle;rounded=0;orthogonalLoop=1;jettySize=auto;html=1;entryX=0.992;entryY=0.372;entryDx=0;entryDy=0;entryPerimeter=0;dashed=1;" parent="1" source="CIh1lqn303J5CGHDNLh4-34" target="CIh1lqn303J5CGHDNLh4-5" edge="1">
          <mxGeometry relative="1" as="geometry">
            <Array as="points">
              <mxPoint x="400" y="760" />
            </Array>
            <mxPoint x="310" y="760" as="targetPoint" />
          </mxGeometry>
        </mxCell>
        <mxCell id="CIh1lqn303J5CGHDNLh4-33" value="Mostrar detalle del esgrimista" style="edgeLabel;html=1;align=center;verticalAlign=middle;resizable=0;points=[];" parent="CIh1lqn303J5CGHDNLh4-32" vertex="1" connectable="0">
          <mxGeometry x="0.2258" y="3" relative="1" as="geometry">
            <mxPoint x="23" y="-13" as="offset" />
          </mxGeometry>
        </mxCell>
        <mxCell id="CIh1lqn303J5CGHDNLh4-34" value="" style="html=1;points=[];perimeter=orthogonalPerimeter;rounded=0;shadow=0;comic=0;labelBackgroundColor=none;strokeWidth=1;fontFamily=Verdana;fontSize=12;align=center;" parent="1" vertex="1">
          <mxGeometry x="480.13" y="497" width="10" height="270" as="geometry" />
        </mxCell>
        <mxCell id="CIh1lqn303J5CGHDNLh4-36" style="edgeStyle=orthogonalEdgeStyle;rounded=0;orthogonalLoop=1;jettySize=auto;html=1;" parent="1" source="CIh1lqn303J5CGHDNLh4-40" target="CIh1lqn303J5CGHDNLh4-43" edge="1">
          <mxGeometry relative="1" as="geometry">
            <Array as="points">
              <mxPoint x="770" y="900" />
              <mxPoint x="770" y="900" />
            </Array>
          </mxGeometry>
        </mxCell>
        <mxCell id="CIh1lqn303J5CGHDNLh4-37" value="Consultar objetivos del esgrimista" style="edgeLabel;html=1;align=center;verticalAlign=middle;resizable=0;points=[];" parent="CIh1lqn303J5CGHDNLh4-36" vertex="1" connectable="0">
          <mxGeometry x="-0.0632" relative="1" as="geometry">
            <mxPoint x="6" y="-11" as="offset" />
          </mxGeometry>
        </mxCell>
        <mxCell id="CIh1lqn303J5CGHDNLh4-38" style="edgeStyle=orthogonalEdgeStyle;rounded=0;orthogonalLoop=1;jettySize=auto;html=1;dashed=1;" parent="1" source="CIh1lqn303J5CGHDNLh4-40" target="CIh1lqn303J5CGHDNLh4-49" edge="1">
          <mxGeometry relative="1" as="geometry">
            <Array as="points">
              <mxPoint x="580" y="1040" />
              <mxPoint x="580" y="1040" />
            </Array>
          </mxGeometry>
        </mxCell>
        <mxCell id="CIh1lqn303J5CGHDNLh4-39" value="Enviar respuesta con &lt;br&gt;objetivos en formato JSON" style="edgeLabel;html=1;align=center;verticalAlign=middle;resizable=0;points=[];" parent="CIh1lqn303J5CGHDNLh4-38" vertex="1" connectable="0">
          <mxGeometry x="-0.0183" y="1" relative="1" as="geometry">
            <mxPoint y="-21" as="offset" />
          </mxGeometry>
        </mxCell>
        <mxCell id="CIh1lqn303J5CGHDNLh4-40" value="" style="html=1;points=[];perimeter=orthogonalPerimeter;rounded=0;shadow=0;comic=0;labelBackgroundColor=none;strokeWidth=1;fontFamily=Verdana;fontSize=12;align=center;" parent="1" vertex="1">
          <mxGeometry x="665" y="860" width="10" height="187" as="geometry" />
        </mxCell>
        <mxCell id="CIh1lqn303J5CGHDNLh4-41" style="edgeStyle=orthogonalEdgeStyle;rounded=0;orthogonalLoop=1;jettySize=auto;html=1;dashed=1;" parent="1" source="CIh1lqn303J5CGHDNLh4-43" target="CIh1lqn303J5CGHDNLh4-40" edge="1">
          <mxGeometry relative="1" as="geometry">
            <Array as="points">
              <mxPoint x="770" y="980" />
              <mxPoint x="770" y="980" />
            </Array>
          </mxGeometry>
        </mxCell>
        <mxCell id="CIh1lqn303J5CGHDNLh4-42" value="Encontrar objetivos del esgrimista" style="edgeLabel;html=1;align=center;verticalAlign=middle;resizable=0;points=[];" parent="CIh1lqn303J5CGHDNLh4-41" vertex="1" connectable="0">
          <mxGeometry x="-0.0211" y="3" relative="1" as="geometry">
            <mxPoint y="-13" as="offset" />
          </mxGeometry>
        </mxCell>
        <mxCell id="CIh1lqn303J5CGHDNLh4-43" value="" style="html=1;points=[];perimeter=orthogonalPerimeter;rounded=0;shadow=0;comic=0;labelBackgroundColor=none;strokeWidth=1;fontFamily=Verdana;fontSize=12;align=center;" parent="1" vertex="1">
          <mxGeometry x="865" y="900" width="10" height="87" as="geometry" />
        </mxCell>
        <mxCell id="CIh1lqn303J5CGHDNLh4-44" value="Navegar a &quot;Objetivos&quot;" style="html=1;verticalAlign=bottom;endArrow=block;entryX=0;entryY=0;labelBackgroundColor=none;fontFamily=Verdana;fontSize=11;edgeStyle=elbowEdgeStyle;elbow=vertical;exitX=0.976;exitY=0.409;exitDx=0;exitDy=0;exitPerimeter=0;" parent="1" source="CIh1lqn303J5CGHDNLh4-5" target="CIh1lqn303J5CGHDNLh4-49" edge="1">
          <mxGeometry x="-0.0061" relative="1" as="geometry">
            <mxPoint x="300" y="820" as="sourcePoint" />
            <mxPoint as="offset" />
          </mxGeometry>
        </mxCell>
        <mxCell id="CIh1lqn303J5CGHDNLh4-45" style="edgeStyle=orthogonalEdgeStyle;rounded=0;orthogonalLoop=1;jettySize=auto;html=1;" parent="1" source="CIh1lqn303J5CGHDNLh4-49" target="CIh1lqn303J5CGHDNLh4-40" edge="1">
          <mxGeometry relative="1" as="geometry">
            <Array as="points">
              <mxPoint x="580" y="860" />
              <mxPoint x="580" y="860" />
            </Array>
          </mxGeometry>
        </mxCell>
        <mxCell id="CIh1lqn303J5CGHDNLh4-46" value="GET request &lt;br&gt;/fencer/cyclegoal_routes/:id" style="edgeLabel;html=1;align=center;verticalAlign=middle;resizable=0;points=[];" parent="CIh1lqn303J5CGHDNLh4-45" vertex="1" connectable="0">
          <mxGeometry x="0.1308" y="1" relative="1" as="geometry">
            <mxPoint x="-9" y="-19" as="offset" />
          </mxGeometry>
        </mxCell>
        <mxCell id="CIh1lqn303J5CGHDNLh4-47" style="edgeStyle=orthogonalEdgeStyle;rounded=0;orthogonalLoop=1;jettySize=auto;html=1;entryX=1.104;entryY=0.577;entryDx=0;entryDy=0;entryPerimeter=0;dashed=1;" parent="1" source="CIh1lqn303J5CGHDNLh4-49" target="CIh1lqn303J5CGHDNLh4-5" edge="1">
          <mxGeometry relative="1" as="geometry">
            <Array as="points">
              <mxPoint x="400" y="1080" />
            </Array>
            <mxPoint x="310" y="1080" as="targetPoint" />
          </mxGeometry>
        </mxCell>
        <mxCell id="CIh1lqn303J5CGHDNLh4-48" value="Mostrar objetivos del esgrimista" style="edgeLabel;html=1;align=center;verticalAlign=middle;resizable=0;points=[];" parent="CIh1lqn303J5CGHDNLh4-47" vertex="1" connectable="0">
          <mxGeometry x="0.2258" y="3" relative="1" as="geometry">
            <mxPoint x="23" y="-13" as="offset" />
          </mxGeometry>
        </mxCell>
        <mxCell id="CIh1lqn303J5CGHDNLh4-49" value="" style="html=1;points=[];perimeter=orthogonalPerimeter;rounded=0;shadow=0;comic=0;labelBackgroundColor=none;strokeWidth=1;fontFamily=Verdana;fontSize=12;align=center;" parent="1" vertex="1">
          <mxGeometry x="480.13" y="817" width="10" height="270" as="geometry" />
        </mxCell>
        <mxCell id="CIh1lqn303J5CGHDNLh4-51" style="edgeStyle=orthogonalEdgeStyle;rounded=0;orthogonalLoop=1;jettySize=auto;html=1;" parent="1" source="CIh1lqn303J5CGHDNLh4-55" target="CIh1lqn303J5CGHDNLh4-58" edge="1">
          <mxGeometry relative="1" as="geometry">
            <Array as="points">
              <mxPoint x="770" y="1220" />
              <mxPoint x="770" y="1220" />
            </Array>
          </mxGeometry>
        </mxCell>
        <mxCell id="CIh1lqn303J5CGHDNLh4-52" value="Consultar mesociclos por grupo" style="edgeLabel;html=1;align=center;verticalAlign=middle;resizable=0;points=[];" parent="CIh1lqn303J5CGHDNLh4-51" vertex="1" connectable="0">
          <mxGeometry x="-0.0632" relative="1" as="geometry">
            <mxPoint x="6" y="-11" as="offset" />
          </mxGeometry>
        </mxCell>
        <mxCell id="CIh1lqn303J5CGHDNLh4-53" style="edgeStyle=orthogonalEdgeStyle;rounded=0;orthogonalLoop=1;jettySize=auto;html=1;dashed=1;" parent="1" source="CIh1lqn303J5CGHDNLh4-55" target="CIh1lqn303J5CGHDNLh4-64" edge="1">
          <mxGeometry relative="1" as="geometry">
            <Array as="points">
              <mxPoint x="580" y="1360" />
              <mxPoint x="580" y="1360" />
            </Array>
          </mxGeometry>
        </mxCell>
        <mxCell id="CIh1lqn303J5CGHDNLh4-54" value="Enviar respuesta con &lt;br&gt;mesociclos en formato JSON" style="edgeLabel;html=1;align=center;verticalAlign=middle;resizable=0;points=[];" parent="CIh1lqn303J5CGHDNLh4-53" vertex="1" connectable="0">
          <mxGeometry x="-0.0183" y="1" relative="1" as="geometry">
            <mxPoint y="-21" as="offset" />
          </mxGeometry>
        </mxCell>
        <mxCell id="CIh1lqn303J5CGHDNLh4-55" value="" style="html=1;points=[];perimeter=orthogonalPerimeter;rounded=0;shadow=0;comic=0;labelBackgroundColor=none;strokeWidth=1;fontFamily=Verdana;fontSize=12;align=center;" parent="1" vertex="1">
          <mxGeometry x="665" y="1180" width="10" height="187" as="geometry" />
        </mxCell>
        <mxCell id="CIh1lqn303J5CGHDNLh4-56" style="edgeStyle=orthogonalEdgeStyle;rounded=0;orthogonalLoop=1;jettySize=auto;html=1;dashed=1;" parent="1" source="CIh1lqn303J5CGHDNLh4-58" target="CIh1lqn303J5CGHDNLh4-55" edge="1">
          <mxGeometry relative="1" as="geometry">
            <Array as="points">
              <mxPoint x="770" y="1300" />
              <mxPoint x="770" y="1300" />
            </Array>
          </mxGeometry>
        </mxCell>
        <mxCell id="CIh1lqn303J5CGHDNLh4-57" value="Encontrar mesociclos" style="edgeLabel;html=1;align=center;verticalAlign=middle;resizable=0;points=[];" parent="CIh1lqn303J5CGHDNLh4-56" vertex="1" connectable="0">
          <mxGeometry x="-0.0211" y="3" relative="1" as="geometry">
            <mxPoint y="-13" as="offset" />
          </mxGeometry>
        </mxCell>
        <mxCell id="CIh1lqn303J5CGHDNLh4-58" value="" style="html=1;points=[];perimeter=orthogonalPerimeter;rounded=0;shadow=0;comic=0;labelBackgroundColor=none;strokeWidth=1;fontFamily=Verdana;fontSize=12;align=center;" parent="1" vertex="1">
          <mxGeometry x="865" y="1220" width="10" height="87" as="geometry" />
        </mxCell>
        <mxCell id="CIh1lqn303J5CGHDNLh4-59" value="Dar click en &quot;Crear Nuevo&quot;" style="html=1;verticalAlign=bottom;endArrow=block;entryX=0;entryY=0;labelBackgroundColor=none;fontFamily=Verdana;fontSize=11;edgeStyle=elbowEdgeStyle;elbow=vertical;exitX=1.008;exitY=0.614;exitDx=0;exitDy=0;exitPerimeter=0;" parent="1" source="CIh1lqn303J5CGHDNLh4-5" target="CIh1lqn303J5CGHDNLh4-64" edge="1">
          <mxGeometry x="-0.0061" relative="1" as="geometry">
            <mxPoint x="300" y="1140" as="sourcePoint" />
            <mxPoint as="offset" />
          </mxGeometry>
        </mxCell>
        <mxCell id="CIh1lqn303J5CGHDNLh4-60" style="edgeStyle=orthogonalEdgeStyle;rounded=0;orthogonalLoop=1;jettySize=auto;html=1;" parent="1" source="CIh1lqn303J5CGHDNLh4-64" target="CIh1lqn303J5CGHDNLh4-55" edge="1">
          <mxGeometry relative="1" as="geometry">
            <Array as="points">
              <mxPoint x="580" y="1180" />
              <mxPoint x="580" y="1180" />
            </Array>
          </mxGeometry>
        </mxCell>
        <mxCell id="CIh1lqn303J5CGHDNLh4-61" value="GET request &lt;br&gt;/group/goals/meso_cycle/:id" style="edgeLabel;html=1;align=center;verticalAlign=middle;resizable=0;points=[];" parent="CIh1lqn303J5CGHDNLh4-60" vertex="1" connectable="0">
          <mxGeometry x="0.1308" y="1" relative="1" as="geometry">
            <mxPoint x="-9" y="-19" as="offset" />
          </mxGeometry>
        </mxCell>
        <mxCell id="CIh1lqn303J5CGHDNLh4-62" style="edgeStyle=orthogonalEdgeStyle;rounded=0;orthogonalLoop=1;jettySize=auto;html=1;entryX=1.024;entryY=0.782;entryDx=0;entryDy=0;entryPerimeter=0;dashed=1;" parent="1" source="CIh1lqn303J5CGHDNLh4-64" target="CIh1lqn303J5CGHDNLh4-5" edge="1">
          <mxGeometry relative="1" as="geometry">
            <Array as="points">
              <mxPoint x="400" y="1400" />
            </Array>
            <mxPoint x="310" y="1400" as="targetPoint" />
          </mxGeometry>
        </mxCell>
        <mxCell id="CIh1lqn303J5CGHDNLh4-63" value="Mostrar mesociclos disponibles&lt;br&gt;en selector de mesociclo" style="edgeLabel;html=1;align=center;verticalAlign=middle;resizable=0;points=[];" parent="CIh1lqn303J5CGHDNLh4-62" vertex="1" connectable="0">
          <mxGeometry x="0.2258" y="3" relative="1" as="geometry">
            <mxPoint x="23" y="-23" as="offset" />
          </mxGeometry>
        </mxCell>
        <mxCell id="CIh1lqn303J5CGHDNLh4-64" value="" style="html=1;points=[];perimeter=orthogonalPerimeter;rounded=0;shadow=0;comic=0;labelBackgroundColor=none;strokeWidth=1;fontFamily=Verdana;fontSize=12;align=center;" parent="1" vertex="1">
          <mxGeometry x="480.13" y="1137" width="10" height="270" as="geometry" />
        </mxCell>
        <mxCell id="CIh1lqn303J5CGHDNLh4-66" style="edgeStyle=orthogonalEdgeStyle;rounded=0;orthogonalLoop=1;jettySize=auto;html=1;" parent="1" source="CIh1lqn303J5CGHDNLh4-70" target="CIh1lqn303J5CGHDNLh4-73" edge="1">
          <mxGeometry relative="1" as="geometry">
            <Array as="points">
              <mxPoint x="770" y="1550" />
              <mxPoint x="770" y="1550" />
            </Array>
          </mxGeometry>
        </mxCell>
        <mxCell id="CIh1lqn303J5CGHDNLh4-67" value="Guardar objetivo en la BD" style="edgeLabel;html=1;align=center;verticalAlign=middle;resizable=0;points=[];" parent="CIh1lqn303J5CGHDNLh4-66" vertex="1" connectable="0">
          <mxGeometry x="-0.0632" relative="1" as="geometry">
            <mxPoint x="6" y="-11" as="offset" />
          </mxGeometry>
        </mxCell>
        <mxCell id="CIh1lqn303J5CGHDNLh4-68" style="edgeStyle=orthogonalEdgeStyle;rounded=0;orthogonalLoop=1;jettySize=auto;html=1;dashed=1;" parent="1" source="CIh1lqn303J5CGHDNLh4-70" target="CIh1lqn303J5CGHDNLh4-79" edge="1">
          <mxGeometry relative="1" as="geometry">
            <Array as="points">
              <mxPoint x="580" y="1690" />
              <mxPoint x="580" y="1690" />
            </Array>
          </mxGeometry>
        </mxCell>
        <mxCell id="CIh1lqn303J5CGHDNLh4-69" value="Enviar codigo 200 con &lt;br&gt;objetivo en formato JSON" style="edgeLabel;html=1;align=center;verticalAlign=middle;resizable=0;points=[];" parent="CIh1lqn303J5CGHDNLh4-68" vertex="1" connectable="0">
          <mxGeometry x="-0.0183" y="1" relative="1" as="geometry">
            <mxPoint y="-21" as="offset" />
          </mxGeometry>
        </mxCell>
        <mxCell id="CIh1lqn303J5CGHDNLh4-70" value="" style="html=1;points=[];perimeter=orthogonalPerimeter;rounded=0;shadow=0;comic=0;labelBackgroundColor=none;strokeWidth=1;fontFamily=Verdana;fontSize=12;align=center;" parent="1" vertex="1">
          <mxGeometry x="665" y="1510" width="10" height="187" as="geometry" />
        </mxCell>
        <mxCell id="CIh1lqn303J5CGHDNLh4-71" style="edgeStyle=orthogonalEdgeStyle;rounded=0;orthogonalLoop=1;jettySize=auto;html=1;dashed=1;" parent="1" source="CIh1lqn303J5CGHDNLh4-73" target="CIh1lqn303J5CGHDNLh4-70" edge="1">
          <mxGeometry relative="1" as="geometry">
            <Array as="points">
              <mxPoint x="770" y="1630" />
              <mxPoint x="770" y="1630" />
            </Array>
          </mxGeometry>
        </mxCell>
        <mxCell id="CIh1lqn303J5CGHDNLh4-72" value="Devolver objetivo guardado" style="edgeLabel;html=1;align=center;verticalAlign=middle;resizable=0;points=[];" parent="CIh1lqn303J5CGHDNLh4-71" vertex="1" connectable="0">
          <mxGeometry x="-0.0211" y="3" relative="1" as="geometry">
            <mxPoint y="-13" as="offset" />
          </mxGeometry>
        </mxCell>
        <mxCell id="CIh1lqn303J5CGHDNLh4-73" value="" style="html=1;points=[];perimeter=orthogonalPerimeter;rounded=0;shadow=0;comic=0;labelBackgroundColor=none;strokeWidth=1;fontFamily=Verdana;fontSize=12;align=center;" parent="1" vertex="1">
          <mxGeometry x="865" y="1550" width="10" height="87" as="geometry" />
        </mxCell>
        <mxCell id="CIh1lqn303J5CGHDNLh4-74" value="Llenar contenido del objetivo&lt;br&gt;y dar click en &quot;confirmar&quot;" style="html=1;verticalAlign=bottom;endArrow=block;entryX=0.052;entryY=0.004;labelBackgroundColor=none;fontFamily=Verdana;fontSize=11;edgeStyle=elbowEdgeStyle;elbow=vertical;exitX=0.992;exitY=0.827;exitDx=0;exitDy=0;exitPerimeter=0;entryDx=0;entryDy=0;entryPerimeter=0;" parent="1" source="CIh1lqn303J5CGHDNLh4-5" target="CIh1lqn303J5CGHDNLh4-79" edge="1">
          <mxGeometry x="-0.0061" relative="1" as="geometry">
            <mxPoint x="300" y="1470" as="sourcePoint" />
            <mxPoint as="offset" />
          </mxGeometry>
        </mxCell>
        <mxCell id="CIh1lqn303J5CGHDNLh4-75" style="edgeStyle=orthogonalEdgeStyle;rounded=0;orthogonalLoop=1;jettySize=auto;html=1;" parent="1" source="CIh1lqn303J5CGHDNLh4-79" target="CIh1lqn303J5CGHDNLh4-70" edge="1">
          <mxGeometry relative="1" as="geometry">
            <Array as="points">
              <mxPoint x="580" y="1510" />
              <mxPoint x="580" y="1510" />
            </Array>
          </mxGeometry>
        </mxCell>
        <mxCell id="CIh1lqn303J5CGHDNLh4-76" value="POST request &lt;br&gt;/cyclegoal_routes/" style="edgeLabel;html=1;align=center;verticalAlign=middle;resizable=0;points=[];" parent="CIh1lqn303J5CGHDNLh4-75" vertex="1" connectable="0">
          <mxGeometry x="0.1308" y="1" relative="1" as="geometry">
            <mxPoint x="-9" y="-19" as="offset" />
          </mxGeometry>
        </mxCell>
        <mxCell id="CIh1lqn303J5CGHDNLh4-77" style="edgeStyle=orthogonalEdgeStyle;rounded=0;orthogonalLoop=1;jettySize=auto;html=1;entryX=1.104;entryY=0.994;entryDx=0;entryDy=0;entryPerimeter=0;dashed=1;" parent="1" source="CIh1lqn303J5CGHDNLh4-79" target="CIh1lqn303J5CGHDNLh4-5" edge="1">
          <mxGeometry relative="1" as="geometry">
            <Array as="points">
              <mxPoint x="400" y="1730" />
            </Array>
            <mxPoint x="310" y="1730" as="targetPoint" />
          </mxGeometry>
        </mxCell>
        <mxCell id="CIh1lqn303J5CGHDNLh4-78" value="Mostrar confirmación de guardado" style="edgeLabel;html=1;align=center;verticalAlign=middle;resizable=0;points=[];" parent="CIh1lqn303J5CGHDNLh4-77" vertex="1" connectable="0">
          <mxGeometry x="0.2258" y="3" relative="1" as="geometry">
            <mxPoint x="23" y="-13" as="offset" />
          </mxGeometry>
        </mxCell>
        <mxCell id="CIh1lqn303J5CGHDNLh4-79" value="" style="html=1;points=[];perimeter=orthogonalPerimeter;rounded=0;shadow=0;comic=0;labelBackgroundColor=none;strokeWidth=1;fontFamily=Verdana;fontSize=12;align=center;" parent="1" vertex="1">
          <mxGeometry x="480.13" y="1467" width="10" height="270" as="geometry" />
        </mxCell>
      </root>
    </mxGraphModel>
  </diagram>
</mxfile>
